<svg width="56" height="56" viewBox="0 0 56 56" fill="none" xmlns="http://www.w3.org/2000/svg">
<path d="M46.5556 18.4802C46.584 18.8916 46.584 19.303 46.584 19.7182C46.584 32.3692 36.9531 46.9598 19.3424 46.9598V46.9522C14.1401 46.9598 9.04595 45.4697 4.6665 42.66C5.42295 42.751 6.18319 42.7965 6.94533 42.7984C11.2565 42.8022 15.4445 41.3556 18.8362 38.6919C14.7392 38.6142 11.1466 35.943 9.8915 32.0432C11.3267 32.32 12.8054 32.2631 14.2141 31.8782C9.74742 30.9758 6.53393 27.0514 6.53393 22.4937C6.53393 22.452 6.53393 22.4122 6.53393 22.3724C7.86482 23.1136 9.35497 23.525 10.8792 23.5705C6.67233 20.759 5.37556 15.1624 7.91601 10.7867C12.777 16.7682 19.9491 20.4045 27.6482 20.7893C26.8765 17.464 27.9306 13.9794 30.418 11.6418C34.2742 8.01689 40.3391 8.20269 43.964 12.057C46.1082 11.6342 48.1633 10.8474 50.044 9.73265C49.3292 11.9489 47.8334 13.8315 45.8352 15.0278C47.7329 14.8041 49.5871 14.296 51.3332 13.5206C50.0478 15.4468 48.4287 17.1246 46.5556 18.4802Z" fill="white"/>
</svg>
