<svg width="52" height="52" viewBox="0 0 52 52" fill="none" xmlns="http://www.w3.org/2000/svg">
<path d="M26.109 0C11.8375 0 0.223097 11.5596 0.218064 25.766C0.21471 30.3091 1.40903 34.7429 3.67355 38.6481L0 52L13.7263 48.4172C17.5445 50.481 21.79 51.5576 26.099 51.5545H26.109C40.3805 51.5545 51.995 39.9932 52 25.7868C52.0034 18.9055 49.3128 12.428 44.4231 7.55907C39.5351 2.6884 33.0351 0.00173333 26.109 0ZM26.109 47.2021H26.1006C22.2392 47.2021 18.4516 46.1691 15.1471 44.2173L14.3587 43.7528L6.21652 45.8779L8.39045 37.9739L7.87884 37.1644C5.7299 33.7777 4.58595 29.8158 4.58774 25.766C4.59277 13.9568 14.248 4.3524 26.1174 4.3524C31.8643 4.35413 37.2672 6.58493 41.3316 10.6323C45.396 14.6796 47.632 20.0616 47.6286 25.7851C47.6236 37.5943 37.9717 47.2021 26.109 47.2021ZM37.913 31.1601C37.2655 30.8395 34.0852 29.2812 33.4914 29.0645C32.8992 28.8513 32.4681 28.7404 32.037 29.3852C31.6076 30.03 30.3663 31.4808 29.9906 31.9089C29.6115 32.3388 29.2341 32.3908 28.5866 32.0701C27.9391 31.7477 25.8541 31.0683 23.3849 28.8739C21.4609 27.1683 20.1626 25.0605 19.7852 24.414C19.4077 23.7709 19.7449 23.4225 20.0686 23.1019C20.3588 22.8159 20.7161 22.3513 21.0382 21.9752C21.3603 21.5991 21.4676 21.3304 21.6857 20.9005C21.9004 20.4724 21.793 20.0945 21.6303 19.7739C21.4676 19.4497 20.176 16.2812 19.6342 14.9933C19.1108 13.7384 18.5774 13.9065 18.1799 13.8857C17.8025 13.8684 17.373 13.8632 16.9386 13.8632C16.5108 13.8632 15.808 14.0244 15.2142 14.6692C14.6221 15.314 12.9497 16.8705 12.9497 20.0391C12.9497 23.2093 15.2679 26.2704 15.5916 26.7003C15.9154 27.1284 20.1542 33.6336 26.6441 36.4243C28.1874 37.0847 29.3917 37.4816 30.3328 37.7797C31.8827 38.2703 33.2934 38.1992 34.4072 38.0345C35.6485 37.8491 38.2351 36.478 38.7719 34.9752C39.312 33.4724 39.312 32.1828 39.151 31.9141C38.9933 31.6455 38.5605 31.4843 37.913 31.1601Z" fill="white"/>
</svg>
